<svg xmlns="http://www.w3.org/2000/svg" xmlns:xlink="http://www.w3.org/1999/xlink" width="600" zoomAndPan="magnify" viewBox="0 0 450 675.000002" height="900" preserveAspectRatio="xMidYMid meet" version="1.0"><defs><g/><clipPath id="718cc4a481"><path d="M 0.332031 0 L 449.667969 0 L 449.667969 674 L 0.332031 674 Z M 0.332031 0 " clip-rule="nonzero"/></clipPath><clipPath id="324316e608"><path d="M 12.019531 15.703125 L 440 15.703125 L 440 563.140625 L 12.019531 563.140625 Z M 12.019531 15.703125 " clip-rule="nonzero"/></clipPath></defs><g clip-path="url(#718cc4a481)"><path fill="#ffffff" d="M 0.332031 0 L 449.667969 0 L 449.667969 674 L 0.332031 674 Z M 0.332031 0 " fill-opacity="1" fill-rule="nonzero"/><path fill="#ffffff" d="M 0.332031 0 L 449.667969 0 L 449.667969 674 L 0.332031 674 Z M 0.332031 0 " fill-opacity="1" fill-rule="nonzero"/></g><path fill="#008291" d="M 71.867188 50.179688 L 97.515625 92.925781 L 71.867188 135.675781 L 46.21875 92.925781 Z M 71.867188 50.179688 " fill-opacity="1" fill-rule="nonzero"/><path fill="#323952" d="M 241.914062 246.816406 L 165.910156 383.605469 L 165.910156 262.035156 Z M 241.914062 246.816406 " fill-opacity="1" fill-rule="nonzero"/><path fill="#1de9fa" d="M 165.910156 110.027344 L 165.910156 262.035156 L 89.90625 246.816406 Z M 165.910156 110.027344 " fill-opacity="1" fill-rule="nonzero"/><path fill="#008291" d="M 165.910156 110.027344 L 241.914062 246.816406 L 165.910156 262.035156 Z M 165.910156 110.027344 " fill-opacity="1" fill-rule="nonzero"/><path fill="#008291" d="M 165.910156 262.035156 L 165.910156 383.605469 L 89.90625 246.816406 Z M 165.910156 262.035156 " fill-opacity="1" fill-rule="nonzero"/><path fill="#008291" d="M 332.621094 413.527344 L 358.269531 456.273438 L 332.621094 499.023438 L 306.972656 456.273438 Z M 332.621094 413.527344 " fill-opacity="1" fill-rule="nonzero"/><path fill="#13fbe2" d="M 332.621094 499.023438 L 358.269531 456.273438 L 332.621094 413.527344 L 306.972656 456.273438 Z M 332.621094 389.417969 C 369.554688 389.417969 399.476562 419.339844 399.476562 456.273438 C 399.476562 493.207031 369.554688 523.128906 332.621094 523.128906 C 295.6875 523.128906 265.765625 493.207031 265.765625 456.273438 C 265.765625 419.339844 295.6875 389.417969 332.621094 389.417969 Z M 332.621094 389.417969 " fill-opacity="1" fill-rule="nonzero"/><path fill="#1de9fa" d="M 354.679688 360.4375 C 398.367188 370.4375 430.9375 409.59375 430.9375 456.273438 C 430.9375 510.5625 386.910156 554.59375 332.621094 554.59375 C 290.730469 554.59375 254.992188 528.429688 240.800781 491.582031 C 236.613281 480.640625 234.304688 468.757812 234.304688 456.273438 C 234.304688 454.820312 234.304688 453.367188 234.390625 452 C 236.355469 406.945312 268.585938 369.753906 311.246094 360.265625 C 317.746094 358.8125 324.585938 358.042969 331.511719 357.957031 C 331.851562 357.957031 332.277344 357.957031 332.621094 357.957031 C 340.230469 357.957031 347.582031 358.8125 354.679688 360.4375 Z M 399.476562 456.273438 C 399.476562 419.339844 369.554688 389.417969 332.621094 389.417969 C 295.6875 389.417969 265.765625 419.339844 265.765625 456.273438 C 265.765625 493.207031 295.6875 523.128906 332.621094 523.128906 C 369.554688 523.128906 399.476562 493.207031 399.476562 456.273438 Z M 399.476562 456.273438 " fill-opacity="1" fill-rule="nonzero"/><path fill="#13fbe2" d="M 240.800781 491.582031 L 122.734375 452 L 234.390625 452 C 234.304688 453.367188 234.304688 454.820312 234.304688 456.273438 C 234.304688 468.757812 236.613281 480.640625 240.800781 491.582031 Z M 240.800781 491.582031 " fill-opacity="1" fill-rule="nonzero"/><path fill="#13fbe2" d="M 331.511719 357.957031 L 381.351562 92.328125 C 381.609375 90.875 381.867188 89.335938 381.867188 87.882812 L 407 96.347656 C 424.867188 102.332031 434.53125 121.738281 428.546875 139.691406 L 354.679688 360.4375 C 347.582031 358.8125 340.230469 357.957031 332.621094 357.957031 C 332.277344 357.957031 331.851562 357.957031 331.511719 357.957031 Z M 331.511719 357.957031 " fill-opacity="1" fill-rule="nonzero"/><path fill="#323952" d="M 311.246094 360.265625 L 311.246094 58.730469 C 311.246094 53.34375 309.964844 48.214844 307.65625 43.683594 L 354.082031 52.402344 C 371.179688 55.652344 382.890625 70.957031 381.867188 87.882812 C 381.867188 89.335938 381.609375 90.875 381.351562 92.328125 L 331.511719 357.957031 C 324.585938 358.042969 317.746094 358.8125 311.246094 360.265625 Z M 311.246094 360.265625 " fill-opacity="1" fill-rule="nonzero"/><path fill="#13fbe2" d="M 71.867188 50.179688 L 46.21875 92.925781 L 71.867188 135.675781 L 97.515625 92.925781 Z M 54.765625 24.53125 L 277.050781 24.53125 C 290.558594 24.53125 302.183594 32.3125 307.65625 43.683594 C 309.964844 48.214844 311.246094 53.34375 311.246094 58.730469 L 311.246094 360.265625 C 268.585938 369.753906 236.355469 406.945312 234.390625 452 L 54.765625 452 C 35.875 452 20.570312 436.695312 20.570312 417.804688 L 20.570312 58.730469 C 20.570312 39.835938 35.875 24.53125 54.765625 24.53125 Z M 241.914062 246.816406 L 165.910156 110.027344 L 89.90625 246.816406 L 165.910156 383.605469 Z M 241.914062 246.816406 " fill-opacity="1" fill-rule="nonzero"/><path fill="#1de9fa" d="M 282.152344 57.089844 L 282.152344 72.253906 C 282.152344 79.511719 273.378906 83.144531 268.246094 78.015625 L 252.636719 62.40625 C 247.429688 57.195312 251.261719 48.296875 258.628906 48.503906 L 274.238281 48.945312 C 278.644531 49.070312 282.152344 52.679688 282.152344 57.089844 Z M 282.152344 57.089844 " fill-opacity="1" fill-rule="nonzero"/><path fill="#36103d" d="M 249.371094 250.964844 C 250.808594 248.386719 250.808594 245.246094 249.371094 242.667969 L 173.382812 105.875 C 170.375 100.449219 161.441406 100.449219 158.4375 105.875 L 82.445312 242.667969 C 81.007812 245.246094 81.007812 248.386719 82.445312 250.964844 L 158.4375 387.753906 C 159.9375 390.46875 162.804688 392.15625 165.910156 392.15625 C 169.015625 392.15625 171.878906 390.46875 173.382812 387.753906 Z M 174.457031 269.019531 L 225.453125 258.820312 L 174.457031 350.609375 Z M 174.457031 251.585938 L 174.457031 143.023438 L 228.742188 240.730469 Z M 157.359375 251.585938 L 103.074219 240.730469 L 157.359375 143.023438 Z M 157.359375 269.019531 L 157.359375 350.609375 L 106.363281 258.820312 Z M 157.359375 269.019531 " fill-opacity="1" fill-rule="nonzero"/><g clip-path="url(#324316e608)"><path fill="#36103d" d="M 409.730469 88.25 L 390.089844 81.636719 C 389.378906 74.644531 387.128906 67.867188 383.050781 61.894531 C 376.605469 52.476562 366.886719 46.121094 355.65625 44.003906 L 313.121094 36.015625 C 305.542969 24.023438 292.253906 15.984375 277.050781 15.984375 L 54.765625 15.984375 C 31.199219 15.984375 12.019531 35.160156 12.019531 58.730469 L 12.019531 417.804688 C 12.019531 441.371094 31.199219 460.550781 54.765625 460.550781 L 121.335938 460.550781 L 234.480469 498.484375 C 250.882812 536.472656 288.683594 563.140625 332.621094 563.140625 C 391.550781 563.140625 439.488281 515.203125 439.488281 456.273438 C 439.488281 408.867188 408.4375 368.625 365.621094 354.679688 L 436.648438 142.394531 C 444.121094 120.003906 432.03125 95.707031 409.730469 88.25 Z M 352.492188 60.800781 C 359.222656 62.078125 365.066406 65.894531 368.929688 71.546875 C 372.796875 77.199219 374.222656 84.019531 372.957031 90.75 L 324.34375 349.828125 C 322.820312 349.945312 321.304688 350.074219 319.796875 350.253906 L 319.796875 58.730469 C 319.796875 57.308594 319.515625 55.96875 319.378906 54.582031 Z M 29.117188 417.804688 L 29.117188 58.730469 C 29.117188 44.585938 40.625 33.082031 54.765625 33.082031 L 277.050781 33.082031 C 291.191406 33.082031 302.699219 44.585938 302.699219 58.730469 L 302.699219 353.75 C 262.28125 365.570312 231.753906 400.632812 226.597656 443.449219 L 54.765625 443.449219 C 40.625 443.449219 29.117188 431.945312 29.117188 417.804688 Z M 175.136719 460.550781 L 225.96875 460.550781 C 226.210938 466.597656 226.851562 472.542969 228.058594 478.292969 Z M 422.390625 456.273438 C 422.390625 505.777344 382.121094 546.042969 332.621094 546.042969 C 283.121094 546.042969 242.851562 505.777344 242.851562 456.273438 C 242.851562 406.773438 283.121094 366.507812 332.621094 366.507812 C 382.121094 366.507812 422.390625 406.773438 422.390625 456.273438 Z M 420.4375 136.976562 L 348.894531 350.78125 C 346.523438 350.414062 344.144531 350.074219 341.722656 349.867188 L 388.757812 99.226562 L 404.289062 104.457031 C 417.679688 108.941406 424.917969 123.527344 420.4375 136.976562 Z M 420.4375 136.976562 " fill-opacity="1" fill-rule="nonzero"/></g><path fill="#36103d" d="M 104.84375 88.527344 L 79.195312 45.78125 C 76.105469 40.636719 67.625 40.636719 64.535156 45.78125 L 38.886719 88.527344 C 37.257812 91.230469 37.257812 94.621094 38.886719 97.328125 L 64.535156 140.074219 C 66.078125 142.644531 68.859375 144.222656 71.863281 144.222656 C 74.871094 144.222656 77.652344 142.644531 79.195312 140.074219 L 104.84375 97.328125 C 106.472656 94.621094 106.472656 91.230469 104.84375 88.527344 Z M 71.867188 119.058594 L 56.1875 92.925781 L 71.867188 66.796875 L 87.546875 92.925781 Z M 71.867188 119.058594 " fill-opacity="1" fill-rule="nonzero"/><path fill="#36103d" d="M 325.289062 409.128906 L 299.640625 451.875 C 298.015625 454.578125 298.015625 457.96875 299.640625 460.675781 L 325.289062 503.421875 C 326.835938 505.992188 329.613281 507.570312 332.621094 507.570312 C 335.625 507.570312 338.40625 505.992188 339.949219 503.421875 L 365.597656 460.675781 C 367.226562 457.96875 367.226562 454.578125 365.597656 451.875 L 339.949219 409.128906 C 336.863281 403.984375 328.378906 403.984375 325.289062 409.128906 Z M 348.300781 456.273438 L 332.621094 482.40625 L 316.941406 456.273438 L 332.621094 430.144531 Z M 348.300781 456.273438 " fill-opacity="1" fill-rule="nonzero"/><path fill="#36103d" d="M 257.210938 456.273438 C 257.210938 497.851562 291.042969 531.683594 332.621094 531.683594 C 374.199219 531.683594 408.027344 497.851562 408.027344 456.273438 C 408.027344 414.695312 374.199219 380.867188 332.621094 380.867188 C 291.042969 380.867188 257.210938 414.695312 257.210938 456.273438 Z M 390.929688 456.273438 C 390.929688 488.425781 364.773438 514.582031 332.621094 514.582031 C 300.46875 514.582031 274.3125 488.425781 274.3125 456.273438 C 274.3125 424.125 300.46875 397.964844 332.621094 397.964844 C 364.773438 397.964844 390.929688 424.121094 390.929688 456.273438 Z M 390.929688 456.273438 " fill-opacity="1" fill-rule="nonzero"/><g fill="#ff00ff" fill-opacity="1"><g transform="translate(39.787488, 637.22688)"><g><path d="M 71.136719 -37.691406 C 68.84375 -40.066406 66.125 -41.171875 62.730469 -41.171875 L 18.84375 -41.171875 C 15.449219 -41.171875 12.648438 -40.066406 10.355469 -37.691406 C 7.980469 -35.226562 6.789062 -32.511719 6.789062 -29.199219 L 6.789062 0 L 13.667969 0 L 13.667969 -17.148438 L 67.824219 -17.148438 L 67.824219 0 L 74.699219 0 L 74.699219 -29.199219 C 74.699219 -32.511719 73.511719 -35.226562 71.136719 -37.691406 Z M 67.824219 -24.023438 L 13.667969 -24.023438 L 13.667969 -29.199219 C 13.667969 -30.644531 14.175781 -31.832031 15.195312 -32.851562 C 15.957031 -33.613281 16.890625 -34.125 17.828125 -34.292969 L 62.644531 -34.292969 C 64.089844 -34.292969 65.277344 -33.785156 66.296875 -32.765625 C 67.316406 -31.746094 67.824219 -30.558594 67.824219 -29.199219 Z M 67.824219 -24.023438 "/></g></g></g><g fill="#ff00ff" fill-opacity="1"><g transform="translate(121.278757, 637.22688)"><g><path d="M 10.355469 -20.371094 C 7.980469 -18.082031 6.789062 -15.28125 6.789062 -11.96875 C 6.789062 -8.660156 7.980469 -5.855469 10.355469 -3.480469 C 12.648438 -1.105469 15.449219 0 18.84375 0 L 73.003906 0 L 73.003906 -6.789062 L 18.84375 -6.789062 C 17.402344 -6.789062 16.214844 -7.300781 15.195312 -8.320312 C 14.175781 -9.335938 13.667969 -10.527344 13.667969 -11.96875 C 13.667969 -13.328125 14.175781 -14.601562 15.195312 -15.621094 C 16.214844 -16.554688 17.402344 -17.0625 18.84375 -17.0625 L 62.730469 -17.0625 C 66.042969 -17.0625 68.84375 -18.25 71.21875 -20.628906 C 73.511719 -22.917969 74.699219 -25.804688 74.699219 -29.117188 C 74.699219 -32.34375 73.511719 -35.226562 71.21875 -37.519531 C 68.84375 -39.898438 66.042969 -41.085938 62.730469 -41.085938 L 8.488281 -41.085938 L 8.488281 -34.210938 L 62.730469 -34.210938 C 64.175781 -34.210938 65.363281 -33.699219 66.382812 -32.679688 C 67.398438 -31.664062 67.824219 -30.472656 67.824219 -29.117188 C 67.824219 -27.671875 67.398438 -26.484375 66.382812 -25.464844 C 65.363281 -24.449219 64.175781 -23.9375 62.730469 -23.9375 L 18.84375 -23.9375 C 15.449219 -23.9375 12.648438 -22.75 10.355469 -20.371094 Z M 10.355469 -20.371094 "/></g></g></g><g fill="#ff00ff" fill-opacity="1"><g transform="translate(202.770026, 637.22688)"><g><path d="M 13.582031 -41.171875 L 6.789062 -41.171875 L 6.789062 0 L 13.667969 0 Z M 13.582031 -41.171875 "/></g></g></g><g fill="#ff00ff" fill-opacity="1"><g transform="translate(223.227734, 637.22688)"><g><path d="M 67.824219 -41.171875 L 67.824219 -24.023438 L 18.84375 -24.023438 C 17.402344 -24.023438 16.214844 -24.53125 15.195312 -25.550781 C 14.175781 -26.484375 13.667969 -27.757812 13.667969 -29.199219 L 13.667969 -41.171875 L 6.789062 -41.171875 L 6.789062 -29.199219 C 6.789062 -25.804688 7.980469 -23.003906 10.355469 -20.710938 C 12.648438 -18.335938 15.449219 -17.148438 18.84375 -17.148438 L 67.824219 -17.148438 L 67.824219 -11.96875 C 67.824219 -10.527344 67.316406 -9.335938 66.296875 -8.320312 C 65.277344 -7.300781 64.089844 -6.789062 62.644531 -6.789062 L 18.84375 -6.789062 C 17.402344 -6.789062 16.214844 -7.300781 15.195312 -8.320312 C 14.175781 -9.335938 13.667969 -10.527344 13.667969 -11.96875 L 6.789062 -11.96875 C 6.789062 -8.660156 7.980469 -5.855469 10.355469 -3.480469 C 12.734375 -1.105469 15.449219 0 18.84375 0 L 62.730469 0 C 66.125 0 68.84375 -1.105469 71.136719 -3.480469 C 73.511719 -5.941406 74.699219 -8.574219 74.699219 -11.800781 L 74.699219 -41.171875 Z M 67.824219 -41.171875 "/></g></g></g><g fill="#ff00ff" fill-opacity="1"><g transform="translate(304.719011, 637.22688)"><g><path d="M 13.667969 -6.875 L 6.789062 -6.875 L 6.789062 0 L 13.667969 0 Z M 13.667969 -6.875 "/></g></g></g><g fill="#ff00ff" fill-opacity="1"><g transform="translate(325.176705, 637.22688)"><g><path d="M 71.136719 -20.457031 C 69.097656 -22.578125 66.636719 -23.769531 63.664062 -24.023438 L 72.664062 -41.171875 L 65.023438 -41.171875 L 56.023438 -24.023438 L 25.464844 -24.023438 L 16.46875 -41.171875 L 8.828125 -41.171875 L 17.828125 -24.023438 C 14.855469 -23.769531 12.394531 -22.578125 10.355469 -20.457031 C 7.980469 -18.164062 6.789062 -15.363281 6.789062 -11.96875 L 6.789062 0 L 13.667969 0 L 13.667969 -11.96875 C 13.667969 -13.410156 14.175781 -14.683594 15.195312 -15.621094 C 16.214844 -16.636719 17.402344 -17.148438 18.84375 -17.148438 L 62.644531 -17.148438 C 64.089844 -17.148438 65.277344 -16.636719 66.296875 -15.621094 C 67.316406 -14.683594 67.824219 -13.410156 67.824219 -11.96875 L 67.824219 0 L 74.699219 0 L 74.699219 -11.96875 C 74.699219 -15.363281 73.511719 -18.164062 71.136719 -20.457031 Z M 71.136719 -20.457031 "/></g></g></g><g fill="#00ffff" fill-opacity="1"><g transform="translate(49.427321, 634.279655)"><g><path d="M 71.136719 -37.691406 C 68.84375 -40.066406 66.125 -41.171875 62.730469 -41.171875 L 18.84375 -41.171875 C 15.449219 -41.171875 12.648438 -40.066406 10.355469 -37.691406 C 7.980469 -35.226562 6.789062 -32.511719 6.789062 -29.199219 L 6.789062 0 L 13.667969 0 L 13.667969 -17.148438 L 67.824219 -17.148438 L 67.824219 0 L 74.699219 0 L 74.699219 -29.199219 C 74.699219 -32.511719 73.511719 -35.226562 71.136719 -37.691406 Z M 67.824219 -24.023438 L 13.667969 -24.023438 L 13.667969 -29.199219 C 13.667969 -30.644531 14.175781 -31.832031 15.195312 -32.851562 C 15.957031 -33.613281 16.890625 -34.125 17.828125 -34.292969 L 62.644531 -34.292969 C 64.089844 -34.292969 65.277344 -33.785156 66.296875 -32.765625 C 67.316406 -31.746094 67.824219 -30.558594 67.824219 -29.199219 Z M 67.824219 -24.023438 "/></g></g></g><g fill="#00ffff" fill-opacity="1"><g transform="translate(130.91859, 634.279655)"><g><path d="M 10.355469 -20.371094 C 7.980469 -18.082031 6.789062 -15.28125 6.789062 -11.96875 C 6.789062 -8.660156 7.980469 -5.855469 10.355469 -3.480469 C 12.648438 -1.105469 15.449219 0 18.84375 0 L 73.003906 0 L 73.003906 -6.789062 L 18.84375 -6.789062 C 17.402344 -6.789062 16.214844 -7.300781 15.195312 -8.320312 C 14.175781 -9.335938 13.667969 -10.527344 13.667969 -11.96875 C 13.667969 -13.328125 14.175781 -14.601562 15.195312 -15.621094 C 16.214844 -16.554688 17.402344 -17.0625 18.84375 -17.0625 L 62.730469 -17.0625 C 66.042969 -17.0625 68.84375 -18.25 71.21875 -20.628906 C 73.511719 -22.917969 74.699219 -25.804688 74.699219 -29.117188 C 74.699219 -32.34375 73.511719 -35.226562 71.21875 -37.519531 C 68.84375 -39.898438 66.042969 -41.085938 62.730469 -41.085938 L 8.488281 -41.085938 L 8.488281 -34.210938 L 62.730469 -34.210938 C 64.175781 -34.210938 65.363281 -33.699219 66.382812 -32.679688 C 67.398438 -31.664062 67.824219 -30.472656 67.824219 -29.117188 C 67.824219 -27.671875 67.398438 -26.484375 66.382812 -25.464844 C 65.363281 -24.449219 64.175781 -23.9375 62.730469 -23.9375 L 18.84375 -23.9375 C 15.449219 -23.9375 12.648438 -22.75 10.355469 -20.371094 Z M 10.355469 -20.371094 "/></g></g></g><g fill="#00ffff" fill-opacity="1"><g transform="translate(212.409859, 634.279655)"><g><path d="M 13.582031 -41.171875 L 6.789062 -41.171875 L 6.789062 0 L 13.667969 0 Z M 13.582031 -41.171875 "/></g></g></g><g fill="#00ffff" fill-opacity="1"><g transform="translate(232.867567, 634.279655)"><g><path d="M 67.824219 -41.171875 L 67.824219 -24.023438 L 18.84375 -24.023438 C 17.402344 -24.023438 16.214844 -24.53125 15.195312 -25.550781 C 14.175781 -26.484375 13.667969 -27.757812 13.667969 -29.199219 L 13.667969 -41.171875 L 6.789062 -41.171875 L 6.789062 -29.199219 C 6.789062 -25.804688 7.980469 -23.003906 10.355469 -20.710938 C 12.648438 -18.335938 15.449219 -17.148438 18.84375 -17.148438 L 67.824219 -17.148438 L 67.824219 -11.96875 C 67.824219 -10.527344 67.316406 -9.335938 66.296875 -8.320312 C 65.277344 -7.300781 64.089844 -6.789062 62.644531 -6.789062 L 18.84375 -6.789062 C 17.402344 -6.789062 16.214844 -7.300781 15.195312 -8.320312 C 14.175781 -9.335938 13.667969 -10.527344 13.667969 -11.96875 L 6.789062 -11.96875 C 6.789062 -8.660156 7.980469 -5.855469 10.355469 -3.480469 C 12.734375 -1.105469 15.449219 0 18.84375 0 L 62.730469 0 C 66.125 0 68.84375 -1.105469 71.136719 -3.480469 C 73.511719 -5.941406 74.699219 -8.574219 74.699219 -11.800781 L 74.699219 -41.171875 Z M 67.824219 -41.171875 "/></g></g></g><g fill="#00ffff" fill-opacity="1"><g transform="translate(314.358844, 634.279655)"><g><path d="M 13.667969 -6.875 L 6.789062 -6.875 L 6.789062 0 L 13.667969 0 Z M 13.667969 -6.875 "/></g></g></g><g fill="#00ffff" fill-opacity="1"><g transform="translate(334.816538, 634.279655)"><g><path d="M 71.136719 -20.457031 C 69.097656 -22.578125 66.636719 -23.769531 63.664062 -24.023438 L 72.664062 -41.171875 L 65.023438 -41.171875 L 56.023438 -24.023438 L 25.464844 -24.023438 L 16.46875 -41.171875 L 8.828125 -41.171875 L 17.828125 -24.023438 C 14.855469 -23.769531 12.394531 -22.578125 10.355469 -20.457031 C 7.980469 -18.164062 6.789062 -15.363281 6.789062 -11.96875 L 6.789062 0 L 13.667969 0 L 13.667969 -11.96875 C 13.667969 -13.410156 14.175781 -14.683594 15.195312 -15.621094 C 16.214844 -16.636719 17.402344 -17.148438 18.84375 -17.148438 L 62.644531 -17.148438 C 64.089844 -17.148438 65.277344 -16.636719 66.296875 -15.621094 C 67.316406 -14.683594 67.824219 -13.410156 67.824219 -11.96875 L 67.824219 0 L 74.699219 0 L 74.699219 -11.96875 C 74.699219 -15.363281 73.511719 -18.164062 71.136719 -20.457031 Z M 71.136719 -20.457031 "/></g></g></g><g fill="#323952" fill-opacity="1"><g transform="translate(44.607405, 635.753255)"><g><path d="M 71.136719 -37.691406 C 68.84375 -40.066406 66.125 -41.171875 62.730469 -41.171875 L 18.84375 -41.171875 C 15.449219 -41.171875 12.648438 -40.066406 10.355469 -37.691406 C 7.980469 -35.226562 6.789062 -32.511719 6.789062 -29.199219 L 6.789062 0 L 13.667969 0 L 13.667969 -17.148438 L 67.824219 -17.148438 L 67.824219 0 L 74.699219 0 L 74.699219 -29.199219 C 74.699219 -32.511719 73.511719 -35.226562 71.136719 -37.691406 Z M 67.824219 -24.023438 L 13.667969 -24.023438 L 13.667969 -29.199219 C 13.667969 -30.644531 14.175781 -31.832031 15.195312 -32.851562 C 15.957031 -33.613281 16.890625 -34.125 17.828125 -34.292969 L 62.644531 -34.292969 C 64.089844 -34.292969 65.277344 -33.785156 66.296875 -32.765625 C 67.316406 -31.746094 67.824219 -30.558594 67.824219 -29.199219 Z M 67.824219 -24.023438 "/></g></g></g><g fill="#323952" fill-opacity="1"><g transform="translate(126.098673, 635.753255)"><g><path d="M 10.355469 -20.371094 C 7.980469 -18.082031 6.789062 -15.28125 6.789062 -11.96875 C 6.789062 -8.660156 7.980469 -5.855469 10.355469 -3.480469 C 12.648438 -1.105469 15.449219 0 18.84375 0 L 73.003906 0 L 73.003906 -6.789062 L 18.84375 -6.789062 C 17.402344 -6.789062 16.214844 -7.300781 15.195312 -8.320312 C 14.175781 -9.335938 13.667969 -10.527344 13.667969 -11.96875 C 13.667969 -13.328125 14.175781 -14.601562 15.195312 -15.621094 C 16.214844 -16.554688 17.402344 -17.0625 18.84375 -17.0625 L 62.730469 -17.0625 C 66.042969 -17.0625 68.84375 -18.25 71.21875 -20.628906 C 73.511719 -22.917969 74.699219 -25.804688 74.699219 -29.117188 C 74.699219 -32.34375 73.511719 -35.226562 71.21875 -37.519531 C 68.84375 -39.898438 66.042969 -41.085938 62.730469 -41.085938 L 8.488281 -41.085938 L 8.488281 -34.210938 L 62.730469 -34.210938 C 64.175781 -34.210938 65.363281 -33.699219 66.382812 -32.679688 C 67.398438 -31.664062 67.824219 -30.472656 67.824219 -29.117188 C 67.824219 -27.671875 67.398438 -26.484375 66.382812 -25.464844 C 65.363281 -24.449219 64.175781 -23.9375 62.730469 -23.9375 L 18.84375 -23.9375 C 15.449219 -23.9375 12.648438 -22.75 10.355469 -20.371094 Z M 10.355469 -20.371094 "/></g></g></g><g fill="#323952" fill-opacity="1"><g transform="translate(207.589942, 635.753255)"><g><path d="M 13.582031 -41.171875 L 6.789062 -41.171875 L 6.789062 0 L 13.667969 0 Z M 13.582031 -41.171875 "/></g></g></g><g fill="#323952" fill-opacity="1"><g transform="translate(228.04765, 635.753255)"><g><path d="M 67.824219 -41.171875 L 67.824219 -24.023438 L 18.84375 -24.023438 C 17.402344 -24.023438 16.214844 -24.53125 15.195312 -25.550781 C 14.175781 -26.484375 13.667969 -27.757812 13.667969 -29.199219 L 13.667969 -41.171875 L 6.789062 -41.171875 L 6.789062 -29.199219 C 6.789062 -25.804688 7.980469 -23.003906 10.355469 -20.710938 C 12.648438 -18.335938 15.449219 -17.148438 18.84375 -17.148438 L 67.824219 -17.148438 L 67.824219 -11.96875 C 67.824219 -10.527344 67.316406 -9.335938 66.296875 -8.320312 C 65.277344 -7.300781 64.089844 -6.789062 62.644531 -6.789062 L 18.84375 -6.789062 C 17.402344 -6.789062 16.214844 -7.300781 15.195312 -8.320312 C 14.175781 -9.335938 13.667969 -10.527344 13.667969 -11.96875 L 6.789062 -11.96875 C 6.789062 -8.660156 7.980469 -5.855469 10.355469 -3.480469 C 12.734375 -1.105469 15.449219 0 18.84375 0 L 62.730469 0 C 66.125 0 68.84375 -1.105469 71.136719 -3.480469 C 73.511719 -5.941406 74.699219 -8.574219 74.699219 -11.800781 L 74.699219 -41.171875 Z M 67.824219 -41.171875 "/></g></g></g><g fill="#323952" fill-opacity="1"><g transform="translate(309.538927, 635.753255)"><g><path d="M 13.667969 -6.875 L 6.789062 -6.875 L 6.789062 0 L 13.667969 0 Z M 13.667969 -6.875 "/></g></g></g><g fill="#323952" fill-opacity="1"><g transform="translate(329.996621, 635.753255)"><g><path d="M 71.136719 -20.457031 C 69.097656 -22.578125 66.636719 -23.769531 63.664062 -24.023438 L 72.664062 -41.171875 L 65.023438 -41.171875 L 56.023438 -24.023438 L 25.464844 -24.023438 L 16.46875 -41.171875 L 8.828125 -41.171875 L 17.828125 -24.023438 C 14.855469 -23.769531 12.394531 -22.578125 10.355469 -20.457031 C 7.980469 -18.164062 6.789062 -15.363281 6.789062 -11.96875 L 6.789062 0 L 13.667969 0 L 13.667969 -11.96875 C 13.667969 -13.410156 14.175781 -14.683594 15.195312 -15.621094 C 16.214844 -16.636719 17.402344 -17.148438 18.84375 -17.148438 L 62.644531 -17.148438 C 64.089844 -17.148438 65.277344 -16.636719 66.296875 -15.621094 C 67.316406 -14.683594 67.824219 -13.410156 67.824219 -11.96875 L 67.824219 0 L 74.699219 0 L 74.699219 -11.96875 C 74.699219 -15.363281 73.511719 -18.164062 71.136719 -20.457031 Z M 71.136719 -20.457031 "/></g></g></g></svg>